<svg xmlns="http://www.w3.org/2000/svg" width="16" height="16" viewBox="0 0 16 16">
  <metadata><?xpacket begin="﻿" id="W5M0MpCehiHzreSzNTczkc9d"?>
<x:xmpmeta xmlns:x="adobe:ns:meta/" x:xmptk="Adobe XMP Core 5.6-c138 79.159824, 2016/09/14-01:09:01        ">
   <rdf:RDF xmlns:rdf="http://www.w3.org/1999/02/22-rdf-syntax-ns#">
      <rdf:Description rdf:about=""/>
   </rdf:RDF>
</x:xmpmeta>
                                                                                                    
                                                                                                    
                                                                                                    
                                                                                                    
                                                                                                    
                                                                                                    
                                                                                                    
                                                                                                    
                                                                                                    
                                                                                                    
                                                                                                    
                                                                                                    
                                                                                                    
                                                                                                    
                                                                                                    
                                                                                                    
                                                                                                    
                                                                                                    
                                                                                                    
                                                                                                    
                           
<?xpacket end="w"?></metadata>
<defs>
    <style>
      .cls-1 {
        fill: #3c4042;
        fill-rule: evenodd;
      }
    </style>
  </defs>
  <path id="chat_icon" data-name="chat icon" class="cls-1" d="M1501.43,5443.6v3.4l-3.07-2.15a7.194,7.194,0,0,1-1.05.09,7.063,7.063,0,0,1-3.73-1.05c0.13,0,.26.02,0.39,0.02a9.481,9.481,0,0,0,1.87-.2,6.034,6.034,0,0,0,2.65.08l1.91,1.15v-1.54l-0.67-.01a5.117,5.117,0,0,0,3.24-4.64,4.867,4.867,0,0,0-1.17-3.11,6.513,6.513,0,0,0-.87-2.07A5.884,5.884,0,0,1,1501.43,5443.6Zm-6.92-.59a6.977,6.977,0,0,1-1.95-.31l-2.45,1.72v-3.02a5.769,5.769,0,0,1-2.1-4.39A6.521,6.521,0,1,1,1494.51,5443.01Zm0-11a5.259,5.259,0,0,0-5.5,4.99,4.841,4.841,0,0,0,2.13,3.93v1.43l1.25-.75a5.915,5.915,0,0,0,2.12.39A5.018,5.018,0,1,0,1494.51,5432.01Z" transform="translate(-1488 -5431)"/>
</svg>
