<svg xmlns="http://www.w3.org/2000/svg"><defs><style>.cls-1{fill:#3c4042;fill-rule:evenodd}</style><style>.cls-1{fill:#fff;fill-rule:evenodd}</style></defs><symbol id="icon-chat" viewBox="0 0 16 16"><path id="chat_icon" data-name="chat icon" class="cls-1" d="M1501.43 5443.6v3.4l-3.07-2.15a7.194 7.194 0 0 1-1.05.09 7.063 7.063 0 0 1-3.73-1.05c.13 0 .26.02.39.02a9.481 9.481 0 0 0 1.87-.2 6.034 6.034 0 0 0 2.65.08l1.91 1.15v-1.54l-.67-.01a5.117 5.117 0 0 0 3.24-4.64 4.867 4.867 0 0 0-1.17-3.11 6.513 6.513 0 0 0-.87-2.07 5.884 5.884 0 0 1 .5 10.03zm-6.92-.59a6.977 6.977 0 0 1-1.95-.31l-2.45 1.72v-3.02a5.769 5.769 0 0 1-2.1-4.39 6.521 6.521 0 1 1 6.5 6zm0-11a5.259 5.259 0 0 0-5.5 4.99 4.841 4.841 0 0 0 2.13 3.93v1.43l1.25-.75a5.915 5.915 0 0 0 2.12.39 5.018 5.018 0 1 0 0-9.99z" transform="translate(-1488 -5431)"/></symbol><symbol id="icon-menu-cross" viewBox="0 0 23.867 23.867"><path fill="#FFF" d="M15.087 11.933l8.56-8.559a.75.75 0 0 0 0-1.061L21.554.22a.747.747 0 0 0-1.06 0l-8.561 8.56L3.373.22a.771.771 0 0 0-1.061 0L.22 2.313a.75.75 0 0 0 0 1.061l8.56 8.559-8.56 8.559a.751.751 0 0 0 0 1.062l2.093 2.094a.744.744 0 0 0 1.06 0l8.561-8.56 8.56 8.56a.746.746 0 0 0 1.06 0l2.093-2.094a.751.751 0 0 0 0-1.062l-8.56-8.559z"/></symbol><symbol id="icon-menu-ham" viewBox="0 0 30 19"><path class="cls-1" d="M0 0h30v3H0V0zm0 8h30v3H0V8zm0 8h30v3H0v-3z"/></symbol><symbol id="icon-search" viewBox="0 0 451 451"><path d="M447.05 428l-109.6-109.6c29.4-33.8 47.2-77.9 47.2-126.1C384.65 86.2 298.35 0 192.35 0 86.25 0 .05 86.3.05 192.3s86.3 192.3 192.3 192.3c48.2 0 92.3-17.8 126.1-47.2L428.05 447c2.6 2.6 6.1 4 9.5 4s6.9-1.3 9.5-4c5.2-5.2 5.2-13.8 0-19zM26.95 192.3c0-91.2 74.2-165.3 165.3-165.3 91.2 0 165.3 74.2 165.3 165.3s-74.1 165.4-165.3 165.4c-91.1 0-165.3-74.2-165.3-165.4z" fill="#fff"/></symbol></svg>